{"title":"The.greatest.showman.2017.HDTS.AC3","magnet":"magnet:?xt=urn:btih:ce8c9c2f9bf105757b78cada404de96ec1f413e9&dn=The.greatest.showman.2017.HDTS.AC3&tr=udp%3A%2F%2Ftracker.leechers-paradise.org%3A6969&tr=udp%3A%2F%2Fzer0day.ch%3A1337&tr=udp%3A%2F%2Fopen.demonii.com%3A1337&tr=udp%3A%2F%2Ftracker.coppersurfer.tk%3A6969&tr=udp%3A%2F%2Fexodus.desync.com%3A6969","uploader":"LifeLongg","categoryP":"video","categoryS":"movies","size":"1077517871","seeders":"0","leechers":"0","description":"******************************Screenshots:********************\r\n <a href=\"\nhttp://picserver4u.com/1091.html\" rel=\"nofollow\" target=\"_NEW\">\nhttp://picserver4u.com/1091.html</a>\r\n <a href=\"\nhttp://picserver4u.com/1092.html\" rel=\"nofollow\" target=\"_NEW\">\nhttp://picserver4u.com/1092.html</a>\r\n <a href=\"\nhttp://picserver4u.com/1093.html\" rel=\"nofollow\" target=\"_NEW\">\nhttp://picserver4u.com/1093.html</a>\r\n <a href=\"\nhttp://picserver4u.com/1094.html\" rel=\"nofollow\" target=\"_NEW\">\nhttp://picserver4u.com/1094.html</a>\r\n <a href=\"\nhttp://picserver4u.com/1095.html\" rel=\"nofollow\" target=\"_NEW\">\nhttp://picserver4u.com/1095.html</a>\r\n\r\n**************************************************************\r\n\r\nComplete name                            : The.greatest.showman.2017.HDTS.AC3\r\nFormat                                   : MPEG-4\r\nFormat profile                           : Base Media\r\nCodec ID                                 : isom (isom/iso2/avc1/mp41)\r\nFile size                                : 1 021 MiB\r\nDuration                                 : 1 h 37 min\r\nOverall bit rate                         : 1 469 kb/s\r\nWriting application                      : Lavf57.56.101\r\n\r\nVideo\r\nID                                       : 1\r\nFormat                                   : AVC\r\nFormat/Info                              : Advanced Video Codec\r\nFormat profile                           : <a href=\"/cdn-cgi/l/email-protection\" class=\"__cf_email__\" data-cfemail=\"531b3a343b131f60\">[email&#xA0;protected]</a>\r\nFormat settings                          : CABAC / 4 Ref Frames\r\nFormat settings, CABAC                   : Yes\r\nFormat settings, RefFrames               : 4 frames\r\nCodec ID                                 : avc1\r\nCodec ID/Info                            : Advanced Video Coding\r\nDuration                                 : 1 h 37 min\r\nBit rate                                 : 1 200 kb/s\r\nWidth                                    : 720 pixels\r\nHeight                                   : 304 pixels\r\nDisplay aspect ratio                     : 2.35:1\r\nFrame rate mode                          : Constant\r\nFrame rate                               : 23.976 (23976/1000) FPS\r\nColor space                              : YUV\r\nChroma subsampling                       : 4:2:0\r\nBit depth                                : 8 bits\r\nScan type                                : Progressive\r\nBits/(Pixel*Frame)                       : 0.229\r\nStream size                              : 840 MiB (82%)\r\n\r\n\r\nAudio\r\nID                                       : 2\r\nFormat                                   : AC-3\r\nFormat/Info                              : Audio Coding 3\r\nCodec ID                                 : ac-3\r\nDuration                                 : 1 h 37 min\r\nBit rate mode                            : Constant\r\nBit rate                                 : 256 kb/s\r\nChannel(s)                               : 2 channels\r\nChannel positions                        : Front: L R\r\nSampling rate                            : 48.0 kHz\r\nFrame rate                               : 31.250 FPS (1536 SPF)\r\nBit depth                                : 16 bits\r\nCompression mode                         : Lossy\r\nStream size                              : 178 MiB (17%)\r\nService kind                             : Complete Main\r\nDefault                                  : Yes\r\nAlternate group                          : 1","last_updated":"2018-01-03T12:00:52.995Z","parsed":{"xt":"urn:btih:ce8c9c2f9bf105757b78cada404de96ec1f413e9","dn":"The.greatest.showman.2017.HDTS.AC3","tr":["udp://exodus.desync.com:6969","udp://open.demonii.com:1337","udp://tracker.coppersurfer.tk:6969","udp://tracker.leechers-paradise.org:6969","udp://zer0day.ch:1337"],"infoHash":"ce8c9c2f9bf105757b78cada404de96ec1f413e9","infoHashBuffer":{"type":"Buffer","data":[206,140,156,47,155,241,5,117,123,120,202,218,64,77,233,110,193,244,19,233]},"name":"The.greatest.showman.2017.HDTS.AC3","announce":["udp://exodus.desync.com:6969","udp://open.demonii.com:1337","udp://tracker.coppersurfer.tk:6969","udp://tracker.leechers-paradise.org:6969","udp://zer0day.ch:1337"],"urlList":[]}}